# xmcd
# 
# Track frame offsets:
#     150
#     18451
#     28848
#     45204
#     57772
# 
# Disc length: 1108
# 
# Revision: 2
# Processed by: cddbd v1.5.2PL0 Copyright (c) Steve Scherf et al.
# Submitted via: fre:ac v1.0.31
# 
DISCID=33045205
DTITLE=The Rolling Stones - Get Yer Ya-Ya's Out! (40th Anniversary Deluxe Box Set)
DYEAR=2009
DGENRE=Rock
TTITLE0=Prodigal Son
TTITLE1=You Gotta Move
TTITLE2=Under My Thumb
TTITLE3=I'm Free
TTITLE4=(I Can't Get No) Satisfaction
EXTD=
EXTT0=
EXTT1=
EXTT2=
EXTT3=
EXTT4=
PLAYORDER=
